<?xml version="1.0" encoding="utf-8"?>
<!-- Generator: Adobe Illustrator 19.0.0, SVG Export Plug-In . SVG Version: 6.00 Build 0)  -->
<svg version="1.1" xmlns="http://www.w3.org/2000/svg" xmlns:xlink="http://www.w3.org/1999/xlink" x="0px" y="0px"
	 viewBox="0 0 933 247.5" style="enable-background:new 0 0 933 247.5;" xml:space="preserve">
<style type="text/css">
	.st0{fill:#7AC943;}
	.st1{fill:#B3B3B3;}
	.st2{fill:#333333;}
	.st3{fill:#1A1A1A;}
</style>
<g id="Text">
	<g id="Sched">
		<g id="XMLID_65_">
			<path id="d_7_" class="st0" d="M768.4,83.2V66.9c-8.6-0.2-15.5-7.2-15.5-15.8s6.9-15.7,15.5-15.8v-8.3h-24v71.8
				c-4-5.3-9.8-9.3-15.9-12c-6.2-2.8-13.3-4.1-21.6-4.1c-8.4,0-16,1.7-22.8,5.2c-6.8,3.5-12.6,8.3-17.4,14.5
				c-4.8,6.2-8.7,13.6-11.3,22.2c-2.6,8.6-4.1,18.1-4.1,28.4v2.7c0,9.9,1.5,19.1,4.1,27.6c2.6,8.5,6.4,16,11.2,22.2
				c4.8,6.3,10.6,11.2,17.3,14.8c6.8,3.6,14.3,5.4,22.6,5.4c8.5,0,15.9-1.4,22.3-4.3c6.4-2.9,11.9-7.2,16.4-12.8l1,14.5h21.9v-12
				c-9-0.3-15.3-7.3-15.3-15.8s6.3-15.5,15.3-15.8v-16.3c-8.6-0.2-15.5-7.2-15.5-15.8s6.9-15.7,15.5-15.8v-16.3
				c-8.6-0.2-15.5-7.2-15.5-15.8S759.8,83.4,768.4,83.2z M744.4,185.8c-1,3-3.2,5.7-5.3,8.1c-2,2.4-4.3,4.5-7,6.2
				c-2.6,1.7-5.5,3.1-8.8,4c-3.2,0.9-6.8,1.4-10.8,1.4c-6.5,0-12.1-1.3-16.8-4c-4.7-2.7-8.5-6.3-11.5-10.9c-3-4.6-5.2-9.9-6.7-15.9
				c-1.4-6-2.1-12.4-2.1-19.1v-2.7c0-6.7,0.7-13.1,2.1-19.2c1.4-6.1,3.7-11.4,6.7-16.1c3-4.6,6.9-8.3,11.6-11
				c4.7-2.7,10.4-4.1,17-4.1c7.7,0,14.1,1.8,19.3,5.4c5.2,3.6,9.3,8.2,12.3,13.8V185.8z"/>
			<path id="e_7_" class="st0" d="M560.5,225.5c-9.7,0-18.6-1.7-26.7-5c-8.1-3.3-15.1-7.9-20.8-13.9c-5.8-5.9-10.3-13-13.5-21.2
				c-3.2-8.2-4.8-17-4.8-26.6v-5.4c0-11.1,1.8-21.1,5.4-29.9c3.6-8.8,8.3-16.2,14.2-22.3c5.9-6.1,12.6-10.7,20.1-14
				c7.5-3.2,15.2-4.8,23.1-4.8c9.9,0,18.6,1.7,26.1,5.2c7.4,3.4,13.6,8.2,18.5,14.3c4.9,6.1,8.6,13.2,11,21.5
				c2.4,8.2,3.6,17.2,3.6,26.8v10.6h-98.5c0.3,6.3,1.5,12.2,3.6,17.7c2.2,5.5,5.1,10.3,8.9,14.5c3.8,4.1,8.3,7.4,13.6,9.8
				c5.3,2.4,11.1,3.6,17.5,3.6c8.4,0,15.9-1.7,22.4-5.1c6.5-3.4,12-7.9,16.3-13.5l14.4,11.2c-2.3,3.5-5.2,6.8-8.6,10
				c-3.4,3.2-7.4,6-11.9,8.5c-4.5,2.5-9.6,4.4-15.3,5.9C573.4,224.8,567.2,225.5,560.5,225.5z M557.5,101.9c-4.8,0-9.3,0.9-13.5,2.6
				c-4.2,1.7-8.1,4.3-11.5,7.6c-3.4,3.4-6.3,7.5-8.6,12.4c-2.3,4.9-4,10.5-4.9,16.9h74.2v-1.8c-0.3-4.6-1.1-9.1-2.6-13.6
				c-1.5-4.5-3.7-8.5-6.6-12.1c-2.9-3.6-6.5-6.5-10.9-8.7C568.7,103,563.5,101.9,557.5,101.9z"/>
			<path id="h_7_" class="st0" d="M366.6,105.6c4.9-7.2,11-12.8,18.2-16.9c7.2-4,15.3-6.1,24.3-6.2c7.2,0,13.8,1,19.7,3.1
				c5.9,2.1,10.9,5.3,15.1,9.7c4.2,4.4,7.4,10,9.6,16.8c2.3,6.8,3.4,14.8,3.4,24V223h-23.6v-87c0-11.3-2.7-19.7-8.1-25.2
				c-5.4-5.5-13.1-8.2-23.1-8.2c-7.6,0-14.4,1.8-20.6,5.5c-6.2,3.7-11.2,8.6-15,14.7V223H343V27.2h23.6V105.6z"/>
			<path id="c_7_" class="st0" d="M245.1,206.4c4.2,0,8.4-0.7,12.4-2c4-1.4,7.6-3.3,10.8-5.7c3.1-2.4,5.7-5.3,7.6-8.5
				c1.9-3.3,2.9-6.8,3-10.6h22.3c-0.1,6.1-1.7,12-4.8,17.5c-3.1,5.6-7.2,10.5-12.4,14.7c-5.2,4.2-11.1,7.6-17.8,10.1
				c-6.7,2.5-13.7,3.8-21,3.8c-10.5,0-19.6-1.9-27.4-5.6c-7.8-3.7-14.3-8.8-19.6-15.1c-5.2-6.3-9.2-13.6-11.8-21.9
				c-2.6-8.3-4-17-4-26.2v-5.4c0-9.1,1.3-17.8,4-26.1c2.6-8.3,6.6-15.7,11.8-22c5.2-6.3,11.7-11.4,19.6-15.1
				c7.8-3.7,16.9-5.6,27.4-5.6c8.2,0,15.7,1.3,22.5,3.9c6.8,2.6,12.7,6.1,17.7,10.6c5,4.5,8.9,9.7,11.7,15.9s4.2,12.7,4.2,19.6
				h-22.3c-0.1-4.2-1-8.1-2.7-11.8c-1.7-3.7-4.1-6.9-7.1-9.7c-3-2.8-6.5-5-10.6-6.6c-4.1-1.6-8.6-2.4-13.3-2.4
				c-7.3,0-13.4,1.5-18.4,4.4c-5,2.9-9,6.8-12,11.5c-3.1,4.7-5.2,10-6.6,15.9c-1.3,5.9-2,11.8-2,17.7v5.4c0,6,0.7,12,2,17.9
				c1.3,5.9,3.5,11.2,6.5,15.9c3,4.7,7,8.5,12,11.5C231.5,204.9,237.7,206.4,245.1,206.4z"/>
			<path id="S_7_" class="st0" d="M126.8,176.1c0-5.7-1.3-10.5-3.9-14.4c-2.6-3.9-5.9-7.2-10-9.9c-4.1-2.7-8.6-4.9-13.4-6.7
				c-4.9-1.8-9.6-3.4-14.1-4.8c-6.5-2.1-13.2-4.7-19.9-7.6c-6.8-3-12.9-6.6-18.5-11c-5.6-4.3-10.1-9.5-13.6-15.4
				c-3.5-5.9-5.3-12.8-5.3-20.8c0-8,1.8-15.1,5.3-21.4c3.5-6.3,8.1-11.6,13.8-15.9c5.7-4.3,12.1-7.6,19.4-9.9
				c7.2-2.3,14.5-3.4,21.8-3.4c8.1,0,15.8,1.3,23.3,4c7.5,2.7,14.1,6.4,19.9,11.3c5.8,4.8,10.4,10.7,13.9,17.6
				c3.5,6.9,5.3,14.6,5.5,23.1h-24.2c-0.7-5.4-2-10.2-4-14.6c-2-4.4-4.5-8.1-7.8-11.3c-3.2-3.1-7.1-5.6-11.5-7.3
				C99,55.9,94,55,88.4,55c-4.5,0-8.9,0.6-13.2,1.9c-4.3,1.3-8.1,3.2-11.5,5.7c-3.4,2.5-6,5.7-8,9.4c-2,3.7-3,8.1-3,13
				c0.1,5.4,1.4,9.9,4.1,13.6c2.6,3.7,6,6.8,10,9.4c4,2.5,8.4,4.7,13.1,6.4c4.7,1.7,9.2,3.2,13.3,4.5c4.6,1.4,9.2,3.1,13.9,4.9
				c4.7,1.8,9.2,3.9,13.5,6.3c4.3,2.4,8.4,5.1,12.1,8c3.7,3,7,6.4,9.8,10.1c2.8,3.8,5,7.9,6.6,12.5c1.6,4.5,2.4,9.6,2.4,15.1
				c0,8.3-1.8,15.6-5.5,21.8c-3.7,6.2-8.5,11.4-14.3,15.5c-5.9,4.1-12.5,7.2-19.9,9.3s-14.8,3.1-22.2,3.1c-8.2,0-16.3-1.3-24.2-3.8
				s-15-6.2-21.2-11c-6.2-4.8-11.3-10.7-15.2-17.6c-3.9-6.9-6-14.8-6.2-23.6h24.1c0.8,5.8,2.3,10.9,4.7,15.4
				c2.4,4.5,5.4,8.2,9.2,11.3c3.7,3.1,8,5.4,12.9,7c4.9,1.6,10.2,2.4,16,2.4c4.6,0,9.1-0.6,13.6-1.7c4.5-1.1,8.4-2.9,11.9-5.4
				c3.5-2.4,6.3-5.5,8.5-9.2C125.7,185.6,126.8,181.2,126.8,176.1z"/>
		</g>
		<g id="XMLID_57_">
			<path id="d_6_" class="st1" d="M768.4,83.2V66.9c-8.6-0.2-15.5-7.2-15.5-15.8s6.9-15.7,15.5-15.8v-8.3h-24v71.8
				c-4-5.3-9.8-9.3-15.9-12c-6.2-2.8-13.3-4.1-21.6-4.1c-8.4,0-16,1.7-22.8,5.2c-6.8,3.5-12.6,8.3-17.4,14.5
				c-4.8,6.2-8.7,13.6-11.3,22.2c-2.6,8.6-4.1,18.1-4.1,28.4v2.7c0,9.9,1.5,19.1,4.1,27.6c2.6,8.5,6.4,16,11.2,22.2
				c4.8,6.3,10.6,11.2,17.3,14.8c6.8,3.6,14.3,5.4,22.6,5.4c8.5,0,15.9-1.4,22.3-4.3c6.4-2.9,11.9-7.2,16.4-12.8l1,14.5h21.9v-12
				c-9-0.3-15.3-7.3-15.3-15.8s6.3-15.5,15.3-15.8v-16.3c-8.6-0.2-15.5-7.2-15.5-15.8s6.9-15.7,15.5-15.8v-16.3
				c-8.6-0.2-15.5-7.2-15.5-15.8S759.8,83.4,768.4,83.2z M744.4,185.8c-1,3-3.2,5.7-5.3,8.1c-2,2.4-4.3,4.5-7,6.2
				c-2.6,1.7-5.5,3.1-8.8,4c-3.2,0.9-6.8,1.4-10.8,1.4c-6.5,0-12.1-1.3-16.8-4c-4.7-2.7-8.5-6.3-11.5-10.9c-3-4.6-5.2-9.9-6.7-15.9
				c-1.4-6-2.1-12.4-2.1-19.1v-2.7c0-6.7,0.7-13.1,2.1-19.2c1.4-6.1,3.7-11.4,6.7-16.1c3-4.6,6.9-8.3,11.6-11
				c4.7-2.7,10.4-4.1,17-4.1c7.7,0,14.1,1.8,19.3,5.4c5.2,3.6,9.3,8.2,12.3,13.8V185.8z"/>
			<path id="e_6_" class="st1" d="M560.5,225.5c-9.7,0-18.6-1.7-26.7-5c-8.1-3.3-15.1-7.9-20.8-13.9c-5.8-5.9-10.3-13-13.5-21.2
				c-3.2-8.2-4.8-17-4.8-26.6v-5.4c0-11.1,1.8-21.1,5.4-29.9c3.6-8.8,8.3-16.2,14.2-22.3c5.9-6.1,12.6-10.7,20.1-14
				c7.5-3.2,15.2-4.8,23.1-4.8c9.9,0,18.6,1.7,26.1,5.2c7.4,3.4,13.6,8.2,18.5,14.3c4.9,6.1,8.6,13.2,11,21.5
				c2.4,8.2,3.6,17.2,3.6,26.8v10.6h-98.5c0.3,6.3,1.5,12.2,3.6,17.7c2.2,5.5,5.1,10.3,8.9,14.5c3.8,4.1,8.3,7.4,13.6,9.8
				c5.3,2.4,11.1,3.6,17.5,3.6c8.4,0,15.9-1.7,22.4-5.1c6.5-3.4,12-7.9,16.3-13.5l14.4,11.2c-2.3,3.5-5.2,6.8-8.6,10
				c-3.4,3.2-7.4,6-11.9,8.5c-4.5,2.5-9.6,4.4-15.3,5.9C573.4,224.8,567.2,225.5,560.5,225.5z M557.5,101.9c-4.8,0-9.3,0.9-13.5,2.6
				c-4.2,1.7-8.1,4.3-11.5,7.6c-3.4,3.4-6.3,7.5-8.6,12.4c-2.3,4.9-4,10.5-4.9,16.9h74.2v-1.8c-0.3-4.6-1.1-9.1-2.6-13.6
				c-1.5-4.5-3.7-8.5-6.6-12.1c-2.9-3.6-6.5-6.5-10.9-8.7C568.7,103,563.5,101.9,557.5,101.9z"/>
			<path id="h_6_" class="st1" d="M366.6,105.6c4.9-7.2,11-12.8,18.2-16.9c7.2-4,15.3-6.1,24.3-6.2c7.2,0,13.8,1,19.7,3.1
				c5.9,2.1,10.9,5.3,15.1,9.7c4.2,4.4,7.4,10,9.6,16.8c2.3,6.8,3.4,14.8,3.4,24V223h-23.6v-87c0-11.3-2.7-19.7-8.1-25.2
				c-5.4-5.5-13.1-8.2-23.1-8.2c-7.6,0-14.4,1.8-20.6,5.5c-6.2,3.7-11.2,8.6-15,14.7V223H343V27.2h23.6V105.6z"/>
			<path id="c_6_" class="st1" d="M245.1,206.4c4.2,0,8.4-0.7,12.4-2c4-1.4,7.6-3.3,10.8-5.7c3.1-2.4,5.7-5.3,7.6-8.5
				c1.9-3.3,2.9-6.8,3-10.6h22.3c-0.1,6.1-1.7,12-4.8,17.5c-3.1,5.6-7.2,10.5-12.4,14.7c-5.2,4.2-11.1,7.6-17.8,10.1
				c-6.7,2.5-13.7,3.8-21,3.8c-10.5,0-19.6-1.9-27.4-5.6c-7.8-3.7-14.3-8.8-19.6-15.1c-5.2-6.3-9.2-13.6-11.8-21.9
				c-2.6-8.3-4-17-4-26.2v-5.4c0-9.1,1.3-17.8,4-26.1c2.6-8.3,6.6-15.7,11.8-22c5.2-6.3,11.7-11.4,19.6-15.1
				c7.8-3.7,16.9-5.6,27.4-5.6c8.2,0,15.7,1.3,22.5,3.9c6.8,2.6,12.7,6.1,17.7,10.6c5,4.5,8.9,9.7,11.7,15.9s4.2,12.7,4.2,19.6
				h-22.3c-0.1-4.2-1-8.1-2.7-11.8c-1.7-3.7-4.1-6.9-7.1-9.7c-3-2.8-6.5-5-10.6-6.6c-4.1-1.6-8.6-2.4-13.3-2.4
				c-7.3,0-13.4,1.5-18.4,4.4c-5,2.9-9,6.8-12,11.5c-3.1,4.7-5.2,10-6.6,15.9c-1.3,5.9-2,11.8-2,17.7v5.4c0,6,0.7,12,2,17.9
				c1.3,5.9,3.5,11.2,6.5,15.9c3,4.7,7,8.5,12,11.5C231.5,204.9,237.7,206.4,245.1,206.4z"/>
			<path id="S_6_" class="st1" d="M126.8,176.1c0-5.7-1.3-10.5-3.9-14.4c-2.6-3.9-5.9-7.2-10-9.9c-4.1-2.7-8.6-4.9-13.4-6.7
				c-4.9-1.8-9.6-3.4-14.1-4.8c-6.5-2.1-13.2-4.7-19.9-7.6c-6.8-3-12.9-6.6-18.5-11c-5.6-4.3-10.1-9.5-13.6-15.4
				c-3.5-5.9-5.3-12.8-5.3-20.8c0-8,1.8-15.1,5.3-21.4c3.5-6.3,8.1-11.6,13.8-15.9c5.7-4.3,12.1-7.6,19.4-9.9
				c7.2-2.3,14.5-3.4,21.8-3.4c8.1,0,15.8,1.3,23.3,4c7.5,2.7,14.1,6.4,19.9,11.3c5.8,4.8,10.4,10.7,13.9,17.6
				c3.5,6.9,5.3,14.6,5.5,23.1h-24.2c-0.7-5.4-2-10.2-4-14.6c-2-4.4-4.5-8.1-7.8-11.3c-3.2-3.1-7.1-5.6-11.5-7.3
				C99,55.9,94,55,88.4,55c-4.5,0-8.9,0.6-13.2,1.9c-4.3,1.3-8.1,3.2-11.5,5.7c-3.4,2.5-6,5.7-8,9.4c-2,3.7-3,8.1-3,13
				c0.1,5.4,1.4,9.9,4.1,13.6c2.6,3.7,6,6.8,10,9.4c4,2.5,8.4,4.7,13.1,6.4c4.7,1.7,9.2,3.2,13.3,4.5c4.6,1.4,9.2,3.1,13.9,4.9
				c4.7,1.8,9.2,3.9,13.5,6.3c4.3,2.4,8.4,5.1,12.1,8c3.7,3,7,6.4,9.8,10.1c2.8,3.8,5,7.9,6.6,12.5c1.6,4.5,2.4,9.6,2.4,15.1
				c0,8.3-1.8,15.6-5.5,21.8c-3.7,6.2-8.5,11.4-14.3,15.5c-5.9,4.1-12.5,7.2-19.9,9.3s-14.8,3.1-22.2,3.1c-8.2,0-16.3-1.3-24.2-3.8
				s-15-6.2-21.2-11c-6.2-4.8-11.3-10.7-15.2-17.6c-3.9-6.9-6-14.8-6.2-23.6h24.1c0.8,5.8,2.3,10.9,4.7,15.4
				c2.4,4.5,5.4,8.2,9.2,11.3c3.7,3.1,8,5.4,12.9,7c4.9,1.6,10.2,2.4,16,2.4c4.6,0,9.1-0.6,13.6-1.7c4.5-1.1,8.4-2.9,11.9-5.4
				c3.5-2.4,6.3-5.5,8.5-9.2C125.7,185.6,126.8,181.2,126.8,176.1z"/>
		</g>
	</g>
</g>
<g id="List">
	<g id="Lines">
		<rect id="XMLID_5_" x="790.4" y="47.3" class="st2" width="118.7" height="7.4"/>
		<rect id="XMLID_6_" x="790.4" y="95.3" class="st2" width="118.7" height="7.4"/>
		<rect id="XMLID_8_" x="790.4" y="143.3" class="st2" width="118.7" height="7.4"/>
		<rect id="XMLID_10_" x="790.4" y="191.3" class="st2" width="118.7" height="7.4"/>
	</g>
	<g id="Bullets">
		<circle id="XMLID_3_" class="st3" cx="768.6" cy="51" r="11.8"/>
		<circle id="XMLID_4_" class="st3" cx="768.6" cy="99" r="11.8"/>
		<circle id="XMLID_7_" class="st3" cx="768.6" cy="147" r="11.8"/>
		<circle id="XMLID_9_" class="st3" cx="768.6" cy="195" r="11.8"/>
	</g>
</g>
</svg>
